%
M48
M72
T01C0.0394
T02C0.0472
T03C0.1260
%
T01
X11917Y16875
X11917Y7230
X11917Y6442
X11917Y3883
X11917Y3096
X11917Y17663
X11917Y18450
X11917Y13529
X11917Y12742
X11917Y11954
X11917Y11167
X11917Y10379
X11917Y9592
X11917Y8805
X11917Y8017
X11917Y2309
X11917Y1521
X11917Y16088
T02
X3468Y18340
X3468Y17340
X3468Y16340
X3468Y15340
X3468Y14340
X3468Y13340
X3468Y12340
X3468Y11340
X3468Y10340
X3468Y9340
X3468Y8340
X3468Y7340
X3468Y6340
X3468Y5340
X3468Y4340
X3468Y3340
X3468Y2340
X3468Y1340
X4468Y18340
X4468Y17340
X4468Y16340
X4468Y15340
X4468Y14340
X4468Y13340
X4468Y12340
X4468Y11340
X4468Y10340
X4468Y9340
X4468Y8340
X4468Y7340
X4468Y6340
X4468Y5340
X4468Y4340
X4468Y3340
X4468Y2340
X4468Y1340
X19468Y18340
X19468Y17340
X19468Y16340
X19468Y15340
X19468Y14340
X19468Y13340
X19468Y12340
X19468Y11340
X19468Y10340
X19468Y9340
X19468Y8340
X19468Y7340
X19468Y6340
X19468Y5340
X19468Y4340
X19468Y3340
X19468Y2340
X19468Y1340
X20468Y18340
X20468Y17340
X20468Y16340
X20468Y15340
X20468Y14340
X20468Y13340
X20468Y12340
X20468Y11340
X20468Y10340
X20468Y9340
X20468Y8340
X20468Y7340
X20468Y6340
X20468Y5340
X20468Y4340
X20468Y3340
X20468Y2340
X20468Y1340
X7468Y18340
X6468Y18340
X8468Y18340
X9468Y18340
X10468Y18340
X17468Y18340
X16468Y18340
X15468Y18340
X14468Y18340
X13468Y18340
X6468Y17340
X7468Y17340
X8468Y17340
X9468Y17340
X10468Y17340
X6468Y16340
X7468Y16340
X8468Y16340
X9468Y16340
X10468Y16340
X6468Y15340
X7468Y15340
X8468Y15340
X9468Y15340
X10468Y15340
X6468Y14340
X7468Y14340
X8468Y14340
X9468Y14340
X10468Y14340
X6468Y13340
X7468Y13340
X8468Y13340
X9468Y13340
X10468Y13340
X6468Y12340
X7468Y12340
X8468Y12340
X9468Y12340
X10468Y12340
X6468Y11340
X7468Y11340
X7468Y11340
X8468Y11340
X9468Y11340
X10468Y11340
X6468Y11340
X6468Y11340
X6468Y10340
X7468Y10340
X8468Y10340
X9468Y10340
X10468Y10340
X6468Y9340
X7468Y9340
X8468Y9340
X9468Y9340
X10468Y9340
X6468Y8340
X7468Y8340
X8468Y8340
X9468Y8340
X10468Y8340
X6468Y7340
X7468Y7340
X8468Y7340
X9468Y7340
X10468Y7340
X6468Y6340
X7468Y6340
X8468Y6340
X9468Y6340
X10468Y6340
X6468Y5340
X7468Y5340
X8468Y5340
X9468Y5340
X10468Y5340
X6468Y4340
X7468Y4340
X8468Y4340
X9468Y4340
X10468Y4340
X6468Y3340
X7468Y3340
X8468Y3340
X9468Y3340
X10468Y3340
X6468Y2340
X7468Y2340
X8468Y2340
X9468Y2340
X10468Y2340
X6468Y1340
X7468Y1340
X8468Y1340
X9468Y1340
X10468Y1340
X17468Y17340
X16468Y17340
X15468Y17340
X14468Y17340
X13468Y17340
X17468Y16340
X16468Y16340
X15468Y16340
X14468Y16340
X13468Y16340
X17468Y15340
X16468Y15340
X15468Y15340
X14468Y15340
X13468Y15340
X17468Y14340
X16468Y14340
X15468Y14340
X14468Y14340
X13468Y14340
X17468Y13340
X16468Y13340
X15468Y13340
X14468Y13340
X13468Y13340
X17468Y12340
X16468Y12340
X15468Y12340
X14468Y12340
X13468Y12340
X17468Y11340
X16468Y11340
X15468Y11340
X14468Y11340
X13468Y11340
X17468Y10340
X16468Y10340
X15468Y10340
X14468Y10340
X13468Y10340
X17468Y9340
X16468Y9340
X15468Y9340
X14468Y9340
X13468Y9340
X17468Y8340
X16468Y8340
X14468Y8340
X15468Y8340
X13468Y8340
X17468Y7340
X16468Y7340
X15468Y7340
X14468Y7340
X13468Y7340
X17468Y6340
X16468Y6340
X15468Y6340
X13468Y6340
X16468Y6340
X14468Y6340
X17468Y5340
X16468Y5340
X15468Y5340
X14468Y5340
X14468Y5340
X13468Y5340
X17468Y4340
X16468Y4340
X15468Y4340
X14468Y4340
X13468Y4340
X17468Y3340
X16468Y3340
X15468Y3340
X14468Y3340
X13468Y3340
X17468Y2340
X16468Y2340
X15468Y2340
X14468Y2340
X13468Y2340
X17468Y1340
X16468Y1340
X15468Y1340
X14468Y1340
X13468Y1340
T03
X11917Y5064
X11917Y14907
M30
